<?xml version="1.0" encoding="UTF-8"?>
<svg id="_圖層_1" xmlns="http://www.w3.org/2000/svg" version="1.1" viewBox="0 0 61.46 71.62">
  <!-- Generator: Adobe Illustrator 29.5.1, SVG Export Plug-In . SVG Version: 2.1.0 Build 141)  -->
  <defs>
    <style>
      .st0 {
        fill: #183168;
      }
    </style>
  </defs>
  <g>
    <path class="st0" d="M7.66,67.38v-2.53h.88c.22,0,.41.02.58.07s.3.13.39.24c.1.11.15.26.15.45s-.05.33-.14.45c-.09.12-.23.21-.39.26-.17.06-.35.09-.57.09h-.44v.96h-.46ZM8.12,66.1h.4c.23,0,.4-.04.52-.12.11-.08.17-.2.17-.36s-.06-.29-.18-.35-.29-.1-.53-.1h-.38s0,.93,0,.93Z"/>
    <path class="st0" d="M10.63,67.38v-2.53h.96c.2,0,.38.02.54.07s.28.12.38.23c.09.11.14.25.14.43s-.05.32-.14.44c-.09.11-.22.2-.38.26-.16.06-.34.08-.54.08h-.5v1.02s-.46,0-.46,0ZM11.09,66.04h.44c.21,0,.37-.04.49-.11.11-.08.17-.19.17-.34s-.06-.26-.17-.32-.27-.09-.49-.09h-.44v.87h0ZM12.22,67.38l-.73-1.12.34-.23.9,1.35h-.52.01Z"/>
    <path class="st0" d="M13.63,67.38v-2.53h1.73v.34h-1.27v.7h1.07v.34h-1.07v.81h1.31v.34h-1.77,0Z"/>
    <path class="st0" d="M16.4,67.38v-2.53h.53l.53,1.28c.03.08.07.17.1.25.03.09.06.17.1.26h.02c.03-.08.07-.17.1-.26.03-.09.06-.17.09-.25l.52-1.28h.54v2.53h-.43v-1.5c0-.09.01-.18.02-.28,0-.09.02-.18.03-.25h-.02l-.23.58-.51,1.2h-.29l-.51-1.2-.23-.58h-.02c.01.08.02.16.03.25,0,.09.02.19.02.28s.01.17.01.25v1.25h-.42.02Z"/>
    <path class="st0" d="M20.09,67.38v-2.53h.46v2.53h-.46Z"/>
    <path class="st0" d="M22.78,67.42c-.16,0-.31-.02-.44-.06-.13-.04-.25-.11-.34-.2-.1-.09-.17-.21-.22-.35s-.08-.32-.08-.52v-1.44h.46v1.47c0,.19.03.34.08.45s.13.19.22.24c.09.05.2.07.32.07s.23-.02.33-.07.17-.13.23-.24.08-.26.08-.45v-1.47h.44v1.44c0,.21-.03.38-.08.52s-.12.26-.22.35c-.1.09-.21.15-.34.2-.13.04-.28.06-.44.06Z"/>
    <path class="st0" d="M25.02,67.38v-2.53h.53l.53,1.28c.03.08.07.17.1.25.03.09.06.17.1.26h.02c.03-.08.07-.17.1-.26.03-.09.06-.17.09-.25l.52-1.28h.54v2.53h-.43v-1.5c0-.09.01-.18.02-.28,0-.09.02-.18.03-.25h-.02l-.23.58-.51,1.2h-.29l-.51-1.2-.23-.58h-.02c.01.08.02.16.03.25,0,.09.02.19.02.28s.01.17.01.25v1.25h-.42.02Z"/>
    <path class="st0" d="M29.61,67.38l.97-2.53h.53l.97,2.53h-.49l-.47-1.37c-.05-.14-.09-.28-.14-.42s-.09-.28-.13-.42h-.02c-.04.14-.09.29-.13.42-.05.14-.09.28-.14.42l-.47,1.37h-.48ZM30.16,66.66v-.32h1.36v.32h-1.36Z"/>
    <path class="st0" d="M33.85,67.42c-.16,0-.31-.02-.44-.06-.13-.04-.25-.11-.34-.2-.1-.09-.17-.21-.22-.35-.05-.14-.08-.32-.08-.52v-1.44h.46v1.47c0,.19.03.34.08.45s.13.19.22.24c.09.05.2.07.32.07s.23-.02.33-.07c.1-.05.17-.13.23-.24s.08-.26.08-.45v-1.47h.44v1.44c0,.21-.03.38-.08.52-.05.14-.12.26-.22.35-.1.09-.21.15-.34.2-.13.04-.28.06-.44.06Z"/>
    <path class="st0" d="M36.67,67.38v-2.19h-.85v-.34h2.18v.34h-.86v2.19h-.47Z"/>
    <path class="st0" d="M39.88,67.42c-.25,0-.47-.05-.66-.16s-.34-.26-.45-.46-.16-.43-.16-.7.05-.5.16-.7c.11-.19.26-.34.45-.45.19-.1.41-.16.66-.16s.47.05.66.16.34.25.45.45c.11.19.16.43.16.7s-.05.5-.16.7-.26.35-.45.46c-.19.11-.41.16-.66.16ZM39.88,67.07c.16,0,.3-.04.42-.12s.21-.19.28-.34c.07-.15.1-.32.1-.51s-.03-.37-.1-.51-.16-.25-.28-.33-.26-.11-.42-.11-.3.04-.42.11c-.12.08-.21.19-.28.33-.06.14-.1.31-.1.51s.03.37.1.51c.06.15.16.26.28.34.12.08.26.12.42.12Z"/>
    <path class="st0" d="M43.45,67.38v-2.53h.88c.22,0,.41.02.58.07.17.05.3.13.39.24.1.11.15.26.15.45s-.05.33-.14.45c-.09.12-.23.21-.39.26-.17.06-.35.09-.57.09h-.44v.96h-.46ZM43.91,66.1h.4c.23,0,.4-.04.52-.12.11-.08.17-.2.17-.36s-.06-.29-.18-.35-.29-.1-.53-.1h-.38v.93Z"/>
    <path class="st0" d="M45.79,67.38l.97-2.53h.53l.97,2.53h-.49l-.47-1.37c-.05-.14-.09-.28-.14-.42s-.09-.28-.13-.42h-.02c-.04.14-.09.29-.13.42-.05.14-.09.28-.14.42l-.47,1.37h-.48ZM46.34,66.66v-.32h1.36v.32h-1.36Z"/>
    <path class="st0" d="M49.04,67.38v-2.53h.96c.2,0,.38.02.54.07s.28.12.38.23c.09.11.14.25.14.43s-.05.32-.14.44c-.09.11-.22.2-.38.26-.16.06-.34.08-.54.08h-.5v1.02s-.46,0-.46,0ZM49.5,66.04h.44c.21,0,.37-.04.49-.11.11-.08.17-.19.17-.34s-.06-.26-.17-.32-.27-.09-.49-.09h-.44v.87h0ZM50.63,67.38l-.73-1.12.34-.23.9,1.35h-.52,0Z"/>
    <path class="st0" d="M52.55,67.38v-2.19h-.85v-.34h2.18v.34h-.86v2.19h-.47Z"/>
    <path class="st0" d="M55.43,67.42c-.2,0-.39-.03-.57-.1s-.33-.16-.47-.27l.27-.27c.11.09.23.16.36.22s.28.08.42.08c.17,0,.31-.03.4-.1s.14-.15.14-.26c0-.08-.02-.14-.06-.19s-.09-.09-.16-.12c-.07-.03-.15-.07-.24-.1l-.4-.15c-.1-.03-.19-.08-.28-.14s-.17-.13-.23-.21-.09-.19-.09-.31c0-.13.04-.25.12-.36s.2-.19.34-.25.31-.09.5-.09c.17,0,.33.03.49.09.15.06.28.14.39.23l-.23.25c-.09-.07-.19-.13-.3-.17s-.22-.06-.35-.06c-.15,0-.27.03-.36.09s-.13.14-.13.23c0,.07.02.13.07.18s.1.09.18.12.15.06.22.09l.4.15c.12.04.22.09.31.15.09.06.16.13.21.22.05.08.08.19.08.31,0,.13-.04.26-.12.37-.08.11-.2.2-.35.27s-.34.1-.55.1h-.01Z"/>
  </g>
  <g>
    <g>
      <path class="st0" d="M18.34,61.02c-.64,0-1.18-.11-1.62-.33s-.8-.55-1.1-.99l1.34-.87c.15.24.32.42.52.54.2.12.39.17.59.17.33,0,.57-.08.74-.25s.25-.49.25-.95v-4.6h1.99v4.73c0,.47-.1.89-.29,1.28s-.49.7-.89.93-.91.35-1.53.35h0Z"/>
      <path class="st0" d="M27.73,61.02c-.76,0-1.45-.14-2.07-.41-.62-.27-1.11-.68-1.48-1.23-.37-.54-.55-1.22-.55-2.02,0-.59.11-1.12.32-1.59.21-.46.51-.86.88-1.18.37-.32.8-.56,1.29-.73s1.01-.25,1.57-.25c.61,0,1.13.09,1.57.28s.8.4,1.08.65l-1.04,1.09c-.21-.16-.43-.29-.66-.4s-.52-.16-.87-.16c-.41,0-.77.09-1.08.26-.31.18-.56.43-.74.76-.18.33-.27.73-.27,1.19s.08.88.25,1.21.42.59.75.77.76.26,1.27.26c.15,0,.29-.02.43-.05s.26-.08.34-.13v-1.15h-1.31v-1.4h3.08v3.34c-.29.24-.68.44-1.16.61-.48.17-1.02.26-1.59.26v.02Z"/>
      <path class="st0" d="M36.67,61.02c-.75,0-1.41-.15-1.98-.45s-1.01-.73-1.33-1.29c-.32-.56-.48-1.23-.48-2.01s.16-1.44.48-1.99.76-.96,1.33-1.25c.57-.28,1.23-.43,1.98-.43s1.42.14,1.98.43c.57.29,1.01.7,1.33,1.25.32.54.48,1.21.48,1.99s-.16,1.45-.48,2.01c-.32.56-.76.99-1.33,1.29-.57.3-1.23.45-1.98.45ZM36.67,59.55c.36,0,.68-.09.94-.28s.47-.45.61-.79.22-.74.22-1.2-.07-.86-.22-1.19c-.14-.33-.35-.58-.61-.75-.26-.17-.58-.26-.94-.26s-.68.09-.94.26-.46.42-.6.75-.21.72-.21,1.19.07.86.21,1.2.34.6.6.79.58.28.94.28Z"/>
    </g>
    <g>
      <path class="st0" d="M15.36,36.83V8.75h2.53v7.02c.71-1.37,1.56-2.65,2.53-3.83v-5.72h-7.58v30.6c0,4.42-3.58,8-8,8v2.53c5.8,0,10.53-4.72,10.53-10.53h-.01Z"/>
      <path class="st0" d="M36.62,25.17v7.59h7.05v4.13c-1.75.96-3.76,1.51-5.9,1.51-6.78,0-12.29-5.51-12.29-12.29s5.51-12.29,12.29-12.29c.15,0,8.7.06,8.7.06v-2.59h-8.7c-8.17,0-14.82,6.65-14.82,14.82s6.65,14.82,14.82,14.82c2.1,0,4.09-.44,5.9-1.23.89-.39,1.74-.86,2.53-1.41v-8.06h-7.04v-2.53h9.57v11.84c-.16.13-.32.26-.49.39-.64.49-1.33.94-2.04,1.33-.81.45-1.65.84-2.53,1.15-1.84.67-3.83,1.03-5.9,1.03-6.27,0-11.77-3.34-14.82-8.34v1.71c0,.79-.05,1.57-.15,2.34,3.65,4.17,9.01,6.81,14.97,6.81,2.05,0,4.03-.31,5.9-.89.87-.27,1.71-.6,2.53-.98.88-.41,1.72-.89,2.53-1.43.21-.14.41-.27.61-.42.67-.48,1.31-1.01,1.92-1.57v-15.52h-14.63v.02Z"/>
      <path class="st0" d="M37.77,8.75c.15,0,8.7.06,8.7.06v-2.59h-8.7c-5.88,0-11.18,2.57-14.82,6.65-.14.15-.27.3-.4.46l-.17.21c-.4.48-.77.99-1.12,1.51-.06.09-.13.19-.19.28-.23.36-.45.71-.65,1.08-.07.13-.14.25-.21.38-.03.05-.05.1-.08.15-.17.33-.33.66-.48.99-.05.11-.1.23-.15.34-.02.06-.05.12-.07.18-.05.11-.09.22-.14.34-.13.31-.24.63-.35.95-.05.15-.1.31-.15.46s-.09.29-.13.44c-.07.23-.13.47-.19.7-.06.25-.12.5-.17.76-.03.14-.05.27-.08.41-.01.04-.02.08-.02.13-.03.14-.05.28-.07.43s-.05.29-.06.44c-.02.19-.05.38-.07.57,0,.05,0,.09-.01.14-.02.18-.03.36-.04.55v.12c-.01.12-.02.24-.02.37,0,.1-.01.21-.01.31,0,.18-.01.37-.01.55h0v10.73c0,.67-.05,1.34-.15,1.98h0c-.03.21-.07.43-.12.64h0c-.04.21-.09.42-.15.63-.06.21-.12.42-.18.62s-.13.4-.21.6h0c-.07.2-.15.4-.23.59h0c-.12.29-.26.58-.4.86h0c-.09.19-.2.37-.3.56h0c-.1.18-.21.36-.33.54s-.23.35-.35.52c-.12.17-.24.34-.38.5-.33.41-.67.8-1.04,1.17-.51.52-1.08,1-1.67,1.42-.17.12-.35.24-.52.35-.36.23-.72.44-1.09.63-.28.15-.57.28-.86.4-.19.08-.39.16-.59.23-.3.11-.6.21-.91.3-.31.09-.62.17-.94.23-.21.04-.43.08-.64.12-.65.1-1.31.15-1.98.15v2.53c7.56,0,13.87-5.38,15.29-12.53.2-.99.3-2.01.3-3.06v-10.72c0-3.3.92-6.38,2.53-9.01,3.05-5,8.55-8.34,14.82-8.34h-.04Z"/>
    </g>
  </g>
</svg>